<?xml version="1.0" encoding="UTF-8" standalone="no"?>
<!DOCTYPE svg PUBLIC "-//W3C//DTD SVG 1.1//EN"
 "http://www.w3.org/Graphics/SVG/1.1/DTD/svg11.dtd">
<!-- Generated by graphviz version 2.43.0 (0)
 -->
<!-- Title: targetgraph&#45;Release Pages: 1 -->
<svg width="927pt" height="376pt"
 viewBox="0.00 0.00 926.74 376.00" xmlns="http://www.w3.org/2000/svg" xmlns:xlink="http://www.w3.org/1999/xlink">
<g id="graph0" class="graph" transform="scale(1 1) rotate(0) translate(4 372)">
<title>targetgraph&#45;Release</title>
<polygon fill="white" stroke="transparent" points="-4,4 -4,-372 922.74,-372 922.74,4 -4,4"/>
<g id="clust1" class="cluster">
<title>cluster_myproject</title>
<g id="a_clust1"><a xlink:title=".&#10;configured_files&#10;src&#10;src/sample_library&#10;src/ftxui_sample">
<polygon fill="white" stroke="black" stroke-dasharray="1,5" points="8.74,-8 8.74,-360 910.74,-360 910.74,-8 8.74,-8"/>
<text text-anchor="middle" x="459.74" y="-344.8" font-family="Times,serif" font-size="14.00">myproject</text>
</a>
</g>
</g>
<g id="clust2" class="cluster">
<title>cluster_FMT</title>
<g id="a_clust2"><a xlink:title="build/_deps/fmt&#45;src">
<polygon fill="white" stroke="black" stroke-dasharray="1,5" points="46.74,-88 46.74,-163 120.74,-163 120.74,-88 46.74,-88"/>
<text text-anchor="middle" x="83.74" y="-147.8" font-family="Times,serif" font-size="14.00">FMT</text>
</a>
</g>
</g>
<g id="clust3" class="cluster">
<title>cluster_spdlog</title>
<g id="a_clust3"><a xlink:title="build/_deps/spdlog&#45;src">
<polygon fill="white" stroke="black" stroke-dasharray="1,5" points="48.74,-171 48.74,-246 154.74,-246 154.74,-171 48.74,-171"/>
<text text-anchor="middle" x="101.74" y="-230.8" font-family="Times,serif" font-size="14.00">spdlog</text>
</a>
</g>
</g>
<g id="clust4" class="cluster">
<title>cluster_Catch2</title>
<g id="a_clust4"><a xlink:title="build/_deps/catch2&#45;src&#10;build/_deps/catch2&#45;src/src">
<polygon fill="white" stroke="black" stroke-dasharray="1,5" points="452.74,-88 452.74,-246 660.74,-246 660.74,-88 452.74,-88"/>
<text text-anchor="middle" x="556.74" y="-230.8" font-family="Times,serif" font-size="14.00">Catch2</text>
</a>
</g>
</g>
<g id="clust5" class="cluster">
<title>cluster_CLI11</title>
<g id="a_clust5"><a xlink:title="build/_deps/cli11&#45;src&#10;build/_deps/cli11&#45;src/fuzz&#10;build/_deps/cli11&#45;src/src&#10;build/_deps/cli11&#45;src/single&#45;include">
<polygon fill="white" stroke="black" stroke-dasharray="1,5" points="162.74,-171 162.74,-246 272.74,-246 272.74,-171 162.74,-171"/>
<text text-anchor="middle" x="217.74" y="-230.8" font-family="Times,serif" font-size="14.00">CLI11</text>
</a>
</g>
</g>
<g id="clust6" class="cluster">
<title>cluster_ftxui</title>
<g id="a_clust6"><a xlink:title="build/_deps/ftxui&#45;src&#10;build/_deps/ftxui&#45;src/examples&#10;build/_deps/ftxui&#45;src/doc">
<polygon fill="white" stroke="black" stroke-dasharray="1,5" points="280.74,-16 280.74,-246 430.74,-246 430.74,-16 280.74,-16"/>
<text text-anchor="middle" x="355.74" y="-230.8" font-family="Times,serif" font-size="14.00">ftxui</text>
</a>
</g>
</g>
<g id="clust8" class="cluster">
<title>cluster_CmakeConfigPackageTests</title>
<g id="a_clust8"><a xlink:title="test">
<polygon fill="white" stroke="black" stroke-dasharray="1,5" points="338.74,-254 338.74,-329 902.74,-329 902.74,-254 338.74,-254"/>
<text text-anchor="middle" x="620.74" y="-313.8" font-family="Times,serif" font-size="14.00">CmakeConfigPackageTests</text>
</a>
</g>
</g>
<!-- fmt -->
<g id="node1" class="node">
<title>fmt</title>
<g id="a_node1"><a xlink:title="type=STATIC_LIBRARY&#10;add_library @ build/_deps/fmt&#45;src/CMakeLists.txt:62&#10;len(depends)=0&#10;installs:&#10;/usr/local/lib&#10;compile_groups:&#10;includes:&#10;/workspaces/cmake_graph_tests/tryouts/cmake_template/build/_deps/fmt&#45;src/include&#10;defines:&#10;sources:&#10;build/_deps/fmt&#45;src/src/format.cc&#10;build/_deps/fmt&#45;src/src/os.cc">
<polygon fill="none" stroke="black" points="112.43,-106.54 112.43,-121.46 95.62,-132 71.86,-132 55.05,-121.46 55.05,-106.54 71.86,-96 95.62,-96 112.43,-106.54"/>
<text text-anchor="middle" x="83.74" y="-110.3" font-family="Times,serif" font-size="14.00">fmt</text>
</a>
</g>
</g>
<!-- spdlog -->
<g id="node2" class="node">
<title>spdlog</title>
<g id="a_node2"><a xlink:title="type=STATIC_LIBRARY&#10;add_library @ build/_deps/spdlog&#45;src/CMakeLists.txt:177&#10;len(depends)=1&#10;compile_groups:&#10;includes:&#10;/workspaces/cmake_graph_tests/tryouts/cmake_template/build/_deps/spdlog&#45;src/include&#10;/workspaces/cmake_graph_tests/tryouts/cmake_template/build/_deps/fmt&#45;src/include&#10;defines:&#10;SPDLOG_COMPILED_LIB&#10;SPDLOG_FMT_EXTERNAL&#10;SPDLOG_FWRITE_UNLOCKED&#10;sources:&#10;build/_deps/spdlog&#45;src/src/spdlog.cpp&#10;build/_deps/spdlog&#45;src/src/stdout_sinks.cpp&#10;build/_deps/spdlog&#45;src/src/color_sinks.cpp&#10;build/_deps/spdlog&#45;src/src/file_sinks.cpp&#10;build/_deps/spdlog&#45;src/src/async.cpp&#10;build/_deps/spdlog&#45;src/src/cfg.cpp">
<polygon fill="none" stroke="black" points="146.79,-189.54 146.79,-204.46 120.4,-215 83.08,-215 56.69,-204.46 56.69,-189.54 83.08,-179 120.4,-179 146.79,-189.54"/>
<text text-anchor="middle" x="101.74" y="-193.3" font-family="Times,serif" font-size="14.00">spdlog</text>
</a>
</g>
</g>
<!-- spdlog&#45;&gt;fmt -->
<g id="edge17" class="edge">
<title>spdlog&#45;&gt;fmt</title>
<path fill="none" stroke="black" stroke-dasharray="5,2" d="M97.92,-178.82C95.56,-168.19 92.48,-154.31 89.79,-142.2"/>
<polygon fill="black" stroke="black" points="93.14,-141.16 87.55,-132.15 86.31,-142.67 93.14,-141.16"/>
</g>
<!-- Catch2 -->
<g id="node3" class="node">
<title>Catch2</title>
<g id="a_node3"><a xlink:title="type=STATIC_LIBRARY&#10;add_library @ build/_deps/catch2&#45;src/src/CMakeLists.txt:350&#10;len(depends)=0&#10;compile_groups:&#10;includes:&#10;/workspaces/cmake_graph_tests/tryouts/cmake_template/build/_deps/catch2&#45;src/src/catch2/..&#10;/workspaces/cmake_graph_tests/tryouts/cmake_template/build/_deps/catch2&#45;build/generated&#45;includes&#10;defines:&#10;sources:&#10;build/_deps/catch2&#45;src/src/catch2/benchmark/catch_chronometer.cpp&#10;build/_deps/catch2&#45;src/src/catch2/benchmark/detail/catch_analyse.cpp&#10;build/_deps/catch2&#45;src/src/catch2/benchmark/detail/catch_benchmark_function.cpp&#10;build/_deps/catch2&#45;src/src/catch2/benchmark/detail/catch_run_for_at_least.cpp&#10;build/_deps/catch2&#45;src/src/catch2/benchmark/detail/catch_stats.cpp&#10;build/_deps/catch2&#45;src/src/catch2/generators/catch_generator_exception.cpp&#10;build/_deps/catch2&#45;src/src/catch2/generators/catch_generators.cpp&#10;build/_deps/catch2&#45;src/src/catch2/generators/catch_generators_random.cpp&#10;build/_deps/catch2&#45;src/src/catch2/reporters/catch_reporter_automake.cpp&#10;build/_deps/catch2&#45;src/src/catch2/reporters/catch_reporter_common_base.cpp&#10;build/_deps/catch2&#45;src/src/catch2/reporters/catch_reporter_compact.cpp&#10;build/_deps/catch2&#45;src/src/catch2/reporters/catch_reporter_console.cpp&#10;build/_deps/catch2&#45;src/src/catch2/reporters/catch_reporter_cumulative_base.cpp&#10;build/_deps/catch2&#45;src/src/catch2/reporters/catch_reporter_event_listener.cpp&#10;build/_deps/catch2&#45;src/src/catch2/reporters/catch_reporter_helpers.cpp&#10;build/_deps/catch2&#45;src/src/catch2/reporters/catch_reporter_json.cpp&#10;build/_deps/catch2&#45;src/src/catch2/reporters/catch_reporter_junit.cpp&#10;build/_deps/catch2&#45;src/src/catch2/reporters/catch_reporter_multi.cpp&#10;build/_deps/catch2&#45;src/src/catch2/reporters/catch_reporter_registrars.cpp&#10;build/_deps/catch2&#45;src/src/catch2/reporters/catch_reporter_sonarqube.cpp&#10;build/_deps/catch2&#45;src/src/catch2/reporters/catch_reporter_streaming_base.cpp&#10;build/_deps/catch2&#45;src/src/catch2/reporters/catch_reporter_tap.cpp&#10;build/_deps/catch2&#45;src/src/catch2/reporters/catch_reporter_teamcity.cpp&#10;build/_deps/catch2&#45;src/src/catch2/reporters/catch_reporter_xml.cpp&#10;build/_deps/catch2&#45;src/src/catch2/interfaces/catch_interfaces_capture.cpp&#10;build/_deps/catch2&#45;src/src/catch2/interfaces/catch_interfaces_config.cpp&#10;build/_deps/catch2&#45;src/src/catch2/interfaces/catch_interfaces_exception.cpp&#10;build/_deps/catch2&#45;src/src/catch2/interfaces/catch_interfaces_generatortracker.cpp&#10;build/_deps/catch2&#45;src/src/catch2/interfaces/catch_interfaces_registry_hub.cpp&#10;build/_deps/catch2&#45;src/src/catch2/interfaces/catch_interfaces_reporter.cpp&#10;build/_deps/catch2&#45;src/src/catch2/interfaces/catch_interfaces_reporter_factory.cpp&#10;build/_deps/catch2&#45;src/src/catch2/interfaces/catch_interfaces_testcase.cpp&#10;build/_deps/catch2&#45;src/src/catch2/catch_approx.cpp&#10;build/_deps/catch2&#45;src/src/catch2/catch_assertion_result.cpp&#10;build/_deps/catch2&#45;src/src/catch2/catch_config.cpp&#10;build/_deps/catch2&#45;src/src/catch2/catch_get_random_seed.cpp&#10;build/_deps/catch2&#45;src/src/catch2/catch_message.cpp&#10;build/_deps/catch2&#45;src/src/catch2/catch_registry_hub.cpp&#10;build/_deps/catch2&#45;src/src/catch2/catch_session.cpp&#10;build/_deps/catch2&#45;src/src/catch2/catch_tag_alias_autoregistrar.cpp&#10;build/_deps/catch2&#45;src/src/catch2/catch_test_case_info.cpp&#10;build/_deps/catch2&#45;src/src/catch2/catch_test_spec.cpp&#10;build/_deps/catch2&#45;src/src/catch2/catch_timer.cpp&#10;build/_deps/catch2&#45;src/src/catch2/catch_tostring.cpp&#10;build/_deps/catch2&#45;src/src/catch2/catch_totals.cpp&#10;build/_deps/catch2&#45;src/src/catch2/catch_translate_exception.cpp&#10;build/_deps/catch2&#45;src/src/catch2/catch_version.cpp&#10;build/_deps/catch2&#45;src/src/catch2/internal/catch_assertion_handler.cpp&#10;build/_deps/catch2&#45;src/src/catch2/internal/catch_case_insensitive_comparisons.cpp&#10;build/_deps/catch2&#45;src/src/catch2/internal/catch_clara.cpp&#10;build/_deps/catch2&#45;src/src/catch2/internal/catch_commandline.cpp&#10;build/_deps/catch2&#45;src/src/catch2/internal/catch_console_colour.cpp&#10;build/_deps/catch2&#45;src/src/catch2/internal/catch_context.cpp&#10;build/_deps/catch2&#45;src/src/catch2/internal/catch_debug_console.cpp&#10;build/_deps/catch2&#45;src/src/catch2/internal/catch_debugger.cpp&#10;build/_deps/catch2&#45;src/src/catch2/internal/catch_decomposer.cpp&#10;build/_deps/catch2&#45;src/src/catch2/internal/catch_enforce.cpp&#10;build/_deps/catch2&#45;src/src/catch2/internal/catch_enum_values_registry.cpp&#10;build/_deps/catch2&#45;src/src/catch2/internal/catch_errno_guard.cpp&#10;build/_deps/catch2&#45;src/src/catch2/internal/catch_exception_translator_registry.cpp&#10;build/_deps/catch2&#45;src/src/catch2/internal/catch_fatal_condition_handler.cpp&#10;build/_deps/catch2&#45;src/src/catch2/internal/catch_floating_point_helpers.cpp&#10;build/_deps/catch2&#45;src/src/catch2/internal/catch_getenv.cpp&#10;build/_deps/catch2&#45;src/src/catch2/internal/catch_istream.cpp&#10;build/_deps/catch2&#45;src/src/catch2/internal/catch_jsonwriter.cpp&#10;build/_deps/catch2&#45;src/src/catch2/internal/catch_lazy_expr.cpp&#10;build/_deps/catch2&#45;src/src/catch2/internal/catch_leak_detector.cpp&#10;build/_deps/catch2&#45;src/src/catch2/internal/catch_list.cpp&#10;build/_deps/catch2&#45;src/src/catch2/internal/catch_message_info.cpp&#10;build/_deps/catch2&#45;src/src/catch2/internal/catch_output_redirect.cpp&#10;build/_deps/catch2&#45;src/src/catch2/internal/catch_parse_numbers.cpp&#10;build/_deps/catch2&#45;src/src/catch2/internal/catch_polyfills.cpp&#10;build/_deps/catch2&#45;src/src/catch2/internal/catch_random_number_generator.cpp&#10;build/_deps/catch2&#45;src/src/catch2/internal/catch_random_seed_generation.cpp&#10;build/_deps/catch2&#45;src/src/catch2/internal/catch_reporter_registry.cpp&#10;build/_deps/catch2&#45;src/src/catch2/internal/catch_reporter_spec_parser.cpp&#10;build/_deps/catch2&#45;src/src/catch2/internal/catch_reusable_string_stream.cpp&#10;build/_deps/catch2&#45;src/src/catch2/internal/catch_run_context.cpp&#10;build/_deps/catch2&#45;src/src/catch2/internal/catch_section.cpp&#10;build/_deps/catch2&#45;src/src/catch2/internal/catch_singletons.cpp&#10;build/_deps/catch2&#45;src/src/catch2/internal/catch_source_line_info.cpp&#10;build/_deps/catch2&#45;src/src/catch2/internal/catch_startup_exception_registry.cpp&#10;build/_deps/catch2&#45;src/src/catch2/internal/catch_stdstreams.cpp&#10;build/_deps/catch2&#45;src/src/catch2/internal/catch_string_manip.cpp&#10;build/_deps/catch2&#45;src/src/catch2/internal/catch_stringref.cpp&#10;build/_deps/catch2&#45;src/src/catch2/internal/catch_tag_alias_registry.cpp&#10;build/_deps/catch2&#45;src/src/catch2/internal/catch_test_case_info_hasher.cpp&#10;build/_deps/catch2&#45;src/src/catch2/internal/catch_test_case_registry_impl.cpp&#10;build/_deps/catch2&#45;src/src/catch2/internal/catch_test_case_tracker.cpp&#10;build/_deps/catch2&#45;src/src/catch2/internal/catch_test_failure_exception.cpp&#10;build/_deps/catch2&#45;src/src/catch2/internal/catch_test_registry.cpp&#10;build/_deps/catch2&#45;src/src/catch2/internal/catch_test_spec_parser.cpp&#10;build/_deps/catch2&#45;src/src/catch2/internal/catch_textflow.cpp&#10;build/_deps/catch2&#45;src/src/catch2/internal/catch_uncaught_exceptions.cpp&#10;build/_deps/catch2&#45;src/src/catch2/internal/catch_wildcard_pattern.cpp&#10;build/_deps/catch2&#45;src/src/catch2/internal/catch_xmlwriter.cpp&#10;build/_deps/catch2&#45;src/src/catch2/matchers/catch_matchers.cpp&#10;build/_deps/catch2&#45;src/src/catch2/matchers/catch_matchers_container_properties.cpp&#10;build/_deps/catch2&#45;src/src/catch2/matchers/catch_matchers_exception.cpp&#10;build/_deps/catch2&#45;src/src/catch2/matchers/catch_matchers_floating_point.cpp&#10;build/_deps/catch2&#45;src/src/catch2/matchers/catch_matchers_predicate.cpp&#10;build/_deps/catch2&#45;src/src/catch2/matchers/catch_matchers_quantifiers.cpp&#10;build/_deps/catch2&#45;src/src/catch2/matchers/catch_matchers_string.cpp&#10;build/_deps/catch2&#45;src/src/catch2/matchers/catch_matchers_templated.cpp&#10;build/_deps/catch2&#45;src/src/catch2/matchers/internal/catch_matchers_impl.cpp">
<polygon fill="none" stroke="black" points="653.01,-106.54 653.01,-121.46 625.32,-132 586.16,-132 558.47,-121.46 558.47,-106.54 586.16,-96 625.32,-96 653.01,-106.54"/>
<text text-anchor="middle" x="605.74" y="-110.3" font-family="Times,serif" font-size="14.00">Catch2</text>
</a>
</g>
</g>
<!-- Catch2WithMain -->
<g id="node4" class="node">
<title>Catch2WithMain</title>
<g id="a_node4"><a xlink:title="type=STATIC_LIBRARY&#10;add_library @ build/_deps/catch2&#45;src/src/CMakeLists.txt:384&#10;len(depends)=1&#10;compile_groups:&#10;includes:&#10;/workspaces/cmake_graph_tests/tryouts/cmake_template/build/_deps/catch2&#45;src/src/catch2/..&#10;/workspaces/cmake_graph_tests/tryouts/cmake_template/build/_deps/catch2&#45;build/generated&#45;includes&#10;defines:&#10;sources:&#10;build/_deps/catch2&#45;src/src/catch2/internal/catch_main.cpp">
<polygon fill="none" stroke="black" points="653,-189.54 653,-204.46 596.61,-215 516.87,-215 460.48,-204.46 460.48,-189.54 516.87,-179 596.61,-179 653,-189.54"/>
<text text-anchor="middle" x="556.74" y="-193.3" font-family="Times,serif" font-size="14.00">Catch2WithMain</text>
</a>
</g>
</g>
<!-- Catch2WithMain&#45;&gt;Catch2 -->
<g id="edge1" class="edge">
<title>Catch2WithMain&#45;&gt;Catch2</title>
<path fill="none" stroke="black" stroke-dasharray="5,2" d="M567.13,-178.82C573.82,-167.76 582.65,-153.18 590.17,-140.75"/>
<polygon fill="black" stroke="black" points="593.18,-142.52 595.36,-132.15 587.19,-138.9 593.18,-142.52"/>
</g>
<!-- CLI11 -->
<g id="node5" class="node">
<title>CLI11</title>
<g id="a_node5"><a xlink:title="type=INTERFACE_LIBRARY&#10;add_library @ build/_deps/cli11&#45;src/src/CMakeLists.txt:10&#10;len(depends)=0">
<polygon fill="none" stroke="black" points="265.04,-202.56 217.74,-215 170.44,-202.56 188.51,-182.44 246.97,-182.44 265.04,-202.56"/>
<text text-anchor="middle" x="217.74" y="-193.3" font-family="Times,serif" font-size="14.00">CLI11</text>
</a>
</g>
</g>
<!-- component -->
<g id="node6" class="node">
<title>component</title>
<g id="a_node6"><a xlink:title="type=STATIC_LIBRARY&#10;add_library @ build/_deps/ftxui&#45;src/CMakeLists.txt:107&#10;len(depends)=2&#10;installs:&#10;/usr/local/lib&#10;compile_groups:&#10;includes:&#10;/workspaces/cmake_graph_tests/tryouts/cmake_template/build/_deps/ftxui&#45;src/src&#10;/workspaces/cmake_graph_tests/tryouts/cmake_template/build/_deps/ftxui&#45;src/include&#10;defines:&#10;sources:&#10;build/_deps/ftxui&#45;src/src/ftxui/component/animation.cpp&#10;build/_deps/ftxui&#45;src/src/ftxui/component/button.cpp&#10;build/_deps/ftxui&#45;src/src/ftxui/component/catch_event.cpp&#10;build/_deps/ftxui&#45;src/src/ftxui/component/checkbox.cpp&#10;build/_deps/ftxui&#45;src/src/ftxui/component/collapsible.cpp&#10;build/_deps/ftxui&#45;src/src/ftxui/component/component.cpp&#10;build/_deps/ftxui&#45;src/src/ftxui/component/component_options.cpp&#10;build/_deps/ftxui&#45;src/src/ftxui/component/container.cpp&#10;build/_deps/ftxui&#45;src/src/ftxui/component/dropdown.cpp&#10;build/_deps/ftxui&#45;src/src/ftxui/component/event.cpp&#10;build/_deps/ftxui&#45;src/src/ftxui/component/hoverable.cpp&#10;build/_deps/ftxui&#45;src/src/ftxui/component/input.cpp&#10;build/_deps/ftxui&#45;src/src/ftxui/component/loop.cpp&#10;build/_deps/ftxui&#45;src/src/ftxui/component/maybe.cpp&#10;build/_deps/ftxui&#45;src/src/ftxui/component/menu.cpp&#10;build/_deps/ftxui&#45;src/src/ftxui/component/modal.cpp&#10;build/_deps/ftxui&#45;src/src/ftxui/component/radiobox.cpp&#10;build/_deps/ftxui&#45;src/src/ftxui/component/renderer.cpp&#10;build/_deps/ftxui&#45;src/src/ftxui/component/resizable_split.cpp&#10;build/_deps/ftxui&#45;src/src/ftxui/component/screen_interactive.cpp&#10;build/_deps/ftxui&#45;src/src/ftxui/component/slider.cpp&#10;build/_deps/ftxui&#45;src/src/ftxui/component/terminal_input_parser.cpp&#10;build/_deps/ftxui&#45;src/src/ftxui/component/util.cpp&#10;build/_deps/ftxui&#45;src/src/ftxui/component/window.cpp">
<polygon fill="none" stroke="black" points="422.41,-189.54 422.41,-204.46 383.35,-215 328.13,-215 289.08,-204.46 289.08,-189.54 328.13,-179 383.35,-179 422.41,-189.54"/>
<text text-anchor="middle" x="355.74" y="-193.3" font-family="Times,serif" font-size="14.00">component</text>
</a>
</g>
</g>
<!-- dom -->
<g id="node7" class="node">
<title>dom</title>
<g id="a_node7"><a xlink:title="type=STATIC_LIBRARY&#10;add_library @ build/_deps/ftxui&#45;src/CMakeLists.txt:52&#10;len(depends)=1&#10;installs:&#10;/usr/local/lib&#10;compile_groups:&#10;includes:&#10;/workspaces/cmake_graph_tests/tryouts/cmake_template/build/_deps/ftxui&#45;src/src&#10;/workspaces/cmake_graph_tests/tryouts/cmake_template/build/_deps/ftxui&#45;src/include&#10;defines:&#10;sources:&#10;build/_deps/ftxui&#45;src/src/ftxui/dom/automerge.cpp&#10;build/_deps/ftxui&#45;src/src/ftxui/dom/selection_style.cpp&#10;build/_deps/ftxui&#45;src/src/ftxui/dom/blink.cpp&#10;build/_deps/ftxui&#45;src/src/ftxui/dom/bold.cpp&#10;build/_deps/ftxui&#45;src/src/ftxui/dom/border.cpp&#10;build/_deps/ftxui&#45;src/src/ftxui/dom/box_helper.cpp&#10;build/_deps/ftxui&#45;src/src/ftxui/dom/canvas.cpp&#10;build/_deps/ftxui&#45;src/src/ftxui/dom/clear_under.cpp&#10;build/_deps/ftxui&#45;src/src/ftxui/dom/color.cpp&#10;build/_deps/ftxui&#45;src/src/ftxui/dom/composite_decorator.cpp&#10;build/_deps/ftxui&#45;src/src/ftxui/dom/dbox.cpp&#10;build/_deps/ftxui&#45;src/src/ftxui/dom/dim.cpp&#10;build/_deps/ftxui&#45;src/src/ftxui/dom/flex.cpp&#10;build/_deps/ftxui&#45;src/src/ftxui/dom/flexbox.cpp&#10;build/_deps/ftxui&#45;src/src/ftxui/dom/flexbox_config.cpp&#10;build/_deps/ftxui&#45;src/src/ftxui/dom/flexbox_helper.cpp&#10;build/_deps/ftxui&#45;src/src/ftxui/dom/focus.cpp&#10;build/_deps/ftxui&#45;src/src/ftxui/dom/frame.cpp&#10;build/_deps/ftxui&#45;src/src/ftxui/dom/gauge.cpp&#10;build/_deps/ftxui&#45;src/src/ftxui/dom/graph.cpp&#10;build/_deps/ftxui&#45;src/src/ftxui/dom/gridbox.cpp&#10;build/_deps/ftxui&#45;src/src/ftxui/dom/hbox.cpp&#10;build/_deps/ftxui&#45;src/src/ftxui/dom/hyperlink.cpp&#10;build/_deps/ftxui&#45;src/src/ftxui/dom/inverted.cpp&#10;build/_deps/ftxui&#45;src/src/ftxui/dom/italic.cpp&#10;build/_deps/ftxui&#45;src/src/ftxui/dom/linear_gradient.cpp&#10;build/_deps/ftxui&#45;src/src/ftxui/dom/node.cpp&#10;build/_deps/ftxui&#45;src/src/ftxui/dom/node_decorator.cpp&#10;build/_deps/ftxui&#45;src/src/ftxui/dom/paragraph.cpp&#10;build/_deps/ftxui&#45;src/src/ftxui/dom/reflect.cpp&#10;build/_deps/ftxui&#45;src/src/ftxui/dom/scroll_indicator.cpp&#10;build/_deps/ftxui&#45;src/src/ftxui/dom/selection.cpp&#10;build/_deps/ftxui&#45;src/src/ftxui/dom/separator.cpp&#10;build/_deps/ftxui&#45;src/src/ftxui/dom/size.cpp&#10;build/_deps/ftxui&#45;src/src/ftxui/dom/spinner.cpp&#10;build/_deps/ftxui&#45;src/src/ftxui/dom/strikethrough.cpp&#10;build/_deps/ftxui&#45;src/src/ftxui/dom/table.cpp&#10;build/_deps/ftxui&#45;src/src/ftxui/dom/text.cpp&#10;build/_deps/ftxui&#45;src/src/ftxui/dom/underlined.cpp&#10;build/_deps/ftxui&#45;src/src/ftxui/dom/underlined_double.cpp&#10;build/_deps/ftxui&#45;src/src/ftxui/dom/util.cpp&#10;build/_deps/ftxui&#45;src/src/ftxui/dom/vbox.cpp">
<polygon fill="none" stroke="black" points="420.87,-106.54 420.87,-121.46 401.46,-132 374.02,-132 354.61,-121.46 354.61,-106.54 374.02,-96 401.46,-96 420.87,-106.54"/>
<text text-anchor="middle" x="387.74" y="-110.3" font-family="Times,serif" font-size="14.00">dom</text>
</a>
</g>
</g>
<!-- component&#45;&gt;dom -->
<g id="edge3" class="edge">
<title>component&#45;&gt;dom</title>
<path fill="none" stroke="black" stroke-dasharray="5,2" d="M362.53,-178.82C366.81,-167.98 372.43,-153.74 377.28,-141.47"/>
<polygon fill="black" stroke="black" points="380.55,-142.74 380.96,-132.15 374.03,-140.17 380.55,-142.74"/>
</g>
<!-- screen -->
<g id="node8" class="node">
<title>screen</title>
<g id="a_node8"><a xlink:title="type=STATIC_LIBRARY&#10;add_library @ build/_deps/ftxui&#45;src/CMakeLists.txt:34&#10;len(depends)=0&#10;installs:&#10;/usr/local/lib&#10;compile_groups:&#10;includes:&#10;/workspaces/cmake_graph_tests/tryouts/cmake_template/build/_deps/ftxui&#45;src/src&#10;/workspaces/cmake_graph_tests/tryouts/cmake_template/build/_deps/ftxui&#45;src/include&#10;defines:&#10;sources:&#10;build/_deps/ftxui&#45;src/src/ftxui/screen/box.cpp&#10;build/_deps/ftxui&#45;src/src/ftxui/screen/color.cpp&#10;build/_deps/ftxui&#45;src/src/ftxui/screen/color_info.cpp&#10;build/_deps/ftxui&#45;src/src/ftxui/screen/image.cpp&#10;build/_deps/ftxui&#45;src/src/ftxui/screen/screen.cpp&#10;build/_deps/ftxui&#45;src/src/ftxui/screen/string.cpp&#10;build/_deps/ftxui&#45;src/src/ftxui/screen/terminal.cpp">
<polygon fill="none" stroke="black" points="380.79,-34.54 380.79,-49.46 354.4,-60 317.08,-60 290.69,-49.46 290.69,-34.54 317.08,-24 354.4,-24 380.79,-34.54"/>
<text text-anchor="middle" x="335.74" y="-38.3" font-family="Times,serif" font-size="14.00">screen</text>
</a>
</g>
</g>
<!-- component&#45;&gt;screen -->
<g id="edge2" class="edge">
<title>component&#45;&gt;screen</title>
<path fill="none" stroke="black" stroke-dasharray="5,2" d="M349.75,-178.7C348.22,-173.69 346.73,-168.17 345.74,-163 339.76,-131.66 337.35,-95.04 336.39,-70.57"/>
<polygon fill="black" stroke="black" points="339.88,-70.12 336.04,-60.24 332.88,-70.36 339.88,-70.12"/>
</g>
<!-- dom&#45;&gt;screen -->
<g id="edge4" class="edge">
<title>dom&#45;&gt;screen</title>
<path fill="none" stroke="black" stroke-dasharray="5,2" d="M374.89,-95.7C368.72,-87.39 361.2,-77.28 354.42,-68.14"/>
<polygon fill="black" stroke="black" points="357.22,-66.04 348.45,-60.1 351.6,-70.22 357.22,-66.04"/>
</g>
<!-- constexpr_tests -->
<g id="node9" class="node">
<title>constexpr_tests</title>
<g id="a_node9"><a xlink:title="type=EXECUTABLE&#10;add_executable @ test/CMakeLists.txt:64&#10;len(depends)=3&#10;compile_groups:&#10;includes:&#10;/workspaces/cmake_graph_tests/tryouts/cmake_template/include&#10;/workspaces/cmake_graph_tests/tryouts/cmake_template/build/include&#10;/workspaces/cmake_graph_tests/tryouts/cmake_template/build/_deps/catch2&#45;src/src/catch2/..&#10;/workspaces/cmake_graph_tests/tryouts/cmake_template/build/_deps/catch2&#45;build/generated&#45;includes&#10;defines:&#10;SAMPLE_LIBRARY_STATIC_DEFINE&#10;sources:&#10;test/constexpr_tests.cpp">
<polygon fill="none" stroke="black" points="813.98,-262.05 819.44,-262.15 824.84,-262.3 830.16,-262.49 835.39,-262.74 840.49,-263.03 845.45,-263.36 850.25,-263.75 854.87,-264.18 859.29,-264.65 863.51,-265.16 867.5,-265.71 871.24,-266.31 874.74,-266.94 877.97,-267.61 880.94,-268.31 883.62,-269.04 886.02,-269.8 888.13,-270.59 889.96,-271.41 891.49,-272.25 892.72,-273.11 893.67,-273.99 894.33,-274.89 894.71,-275.8 894.82,-276.72 894.65,-277.65 894.22,-278.59 893.53,-279.53 892.6,-280.47 891.44,-281.41 890.05,-282.35 888.45,-283.28 886.65,-284.2 884.66,-285.11 882.5,-286.01 880.17,-286.89 877.69,-287.75 875.07,-288.59 872.31,-289.41 869.45,-290.2 866.47,-290.96 863.4,-291.69 860.24,-292.39 857.01,-293.06 853.71,-293.69 850.34,-294.29 846.93,-294.84 843.47,-295.35 839.98,-295.82 836.45,-296.25 832.89,-296.64 829.31,-296.97 825.72,-297.26 822.1,-297.51 818.48,-297.7 814.85,-297.85 811.21,-297.95 807.56,-298 803.92,-298 800.28,-297.95 796.64,-297.85 793,-297.7 789.38,-297.51 785.77,-297.26 782.17,-296.97 778.59,-296.64 775.03,-296.25 771.5,-295.82 768.01,-295.35 764.55,-294.84 761.14,-294.29 757.78,-293.69 754.47,-293.06 751.24,-292.39 748.08,-291.69 745.01,-290.96 742.04,-290.2 739.17,-289.41 736.42,-288.59 733.79,-287.75 731.31,-286.89 728.98,-286.01 726.82,-285.11 724.83,-284.2 723.03,-283.28 721.43,-282.35 720.04,-281.41 718.88,-280.47 717.95,-279.53 717.27,-278.59 716.83,-277.65 716.67,-276.72 716.77,-275.8 717.15,-274.89 717.81,-273.99 718.76,-273.11 720,-272.25 721.53,-271.41 723.35,-270.59 725.46,-269.8 727.86,-269.04 730.55,-268.31 733.51,-267.61 736.74,-266.94 740.24,-266.31 743.99,-265.71 747.97,-265.16 752.19,-264.65 756.61,-264.18 761.23,-263.75 766.03,-263.36 770.99,-263.03 776.1,-262.74 781.32,-262.49 786.64,-262.3 792.04,-262.15 797.5,-262.05 802.99,-262 808.49,-262 813.98,-262.05"/>
<text text-anchor="middle" x="805.74" y="-276.3" font-family="Times,serif" font-size="14.00">constexpr_tests</text>
</a>
</g>
</g>
<!-- constexpr_tests&#45;&gt;Catch2 -->
<g id="edge5" class="edge">
<title>constexpr_tests&#45;&gt;Catch2</title>
<path fill="none" stroke="black" stroke-dasharray="5,2" d="M871.65,-266.24C881.52,-261.47 890.47,-254.94 896.74,-246 915.88,-218.71 917.97,-196.7 896.74,-171 867.72,-135.86 739.49,-122.54 663.27,-117.66"/>
<polygon fill="black" stroke="black" points="663.07,-114.15 652.88,-117.03 662.65,-121.13 663.07,-114.15"/>
</g>
<!-- constexpr_tests&#45;&gt;Catch2WithMain -->
<g id="edge6" class="edge">
<title>constexpr_tests&#45;&gt;Catch2WithMain</title>
<path fill="none" stroke="black" stroke-dasharray="5,2" d="M752.8,-264.52C738.26,-260.81 722.45,-257.02 707.74,-254 685.27,-249.38 678.65,-252.81 656.74,-246 635.76,-239.47 613.61,-229.23 595.51,-219.88"/>
<polygon fill="black" stroke="black" points="596.92,-216.66 586.44,-215.09 593.65,-222.85 596.92,-216.66"/>
</g>
<!-- sample_library -->
<g id="node13" class="node">
<title>sample_library</title>
<g id="a_node13"><a xlink:title="type=STATIC_LIBRARY&#10;add_library @ src/sample_library/CMakeLists.txt:4&#10;len(depends)=0&#10;compile_groups:&#10;includes:&#10;/workspaces/cmake_graph_tests/tryouts/cmake_template/include&#10;/workspaces/cmake_graph_tests/tryouts/cmake_template/build/include&#10;defines:&#10;SAMPLE_LIBRARY_STATIC_DEFINE&#10;sources:&#10;src/sample_library/sample_library.cpp">
<polygon fill="none" stroke="black" points="882.39,-189.54 882.39,-204.46 832.22,-215 761.26,-215 711.09,-204.46 711.09,-189.54 761.26,-179 832.22,-179 882.39,-189.54"/>
<text text-anchor="middle" x="796.74" y="-193.3" font-family="Times,serif" font-size="14.00">sample_library</text>
</a>
</g>
</g>
<!-- constexpr_tests&#45;&gt;sample_library -->
<g id="edge7" class="edge">
<title>constexpr_tests&#45;&gt;sample_library</title>
<path fill="none" stroke="black" stroke-dasharray="5,2" d="M803.83,-261.82C802.65,-251.19 801.11,-237.31 799.76,-225.2"/>
<polygon fill="black" stroke="black" points="803.23,-224.71 798.65,-215.15 796.27,-225.48 803.23,-224.71"/>
</g>
<!-- relaxed_constexpr_tests -->
<g id="node10" class="node">
<title>relaxed_constexpr_tests</title>
<g id="a_node10"><a xlink:title="type=EXECUTABLE&#10;add_executable @ test/CMakeLists.txt:87&#10;len(depends)=3&#10;compile_groups:&#10;includes:&#10;/workspaces/cmake_graph_tests/tryouts/cmake_template/include&#10;/workspaces/cmake_graph_tests/tryouts/cmake_template/build/include&#10;/workspaces/cmake_graph_tests/tryouts/cmake_template/build/_deps/catch2&#45;src/src/catch2/..&#10;/workspaces/cmake_graph_tests/tryouts/cmake_template/build/_deps/catch2&#45;build/generated&#45;includes&#10;defines:&#10;CATCH_CONFIG_RUNTIME_STATIC_REQUIRE&#10;SAMPLE_LIBRARY_STATIC_DEFINE&#10;sources:&#10;test/constexpr_tests.cpp">
<polygon fill="none" stroke="black" points="489.83,-262.05 497.83,-262.15 505.75,-262.3 513.56,-262.49 521.22,-262.74 528.7,-263.03 535.97,-263.36 543.01,-263.75 549.79,-264.18 556.28,-264.65 562.46,-265.16 568.31,-265.71 573.8,-266.31 578.93,-266.94 583.67,-267.61 588.02,-268.31 591.95,-269.04 595.48,-269.8 598.57,-270.59 601.25,-271.41 603.49,-272.25 605.31,-273.11 606.7,-273.99 607.67,-274.89 608.22,-275.8 608.37,-276.72 608.13,-277.65 607.49,-278.59 606.49,-279.53 605.13,-280.47 603.42,-281.41 601.39,-282.35 599.04,-283.28 596.4,-284.2 593.49,-285.11 590.31,-286.01 586.89,-286.89 583.25,-287.75 579.41,-288.59 575.37,-289.41 571.17,-290.2 566.8,-290.96 562.3,-291.69 557.67,-292.39 552.93,-293.06 548.08,-293.69 543.15,-294.29 538.15,-294.84 533.08,-295.35 527.95,-295.82 522.78,-296.25 517.56,-296.64 512.31,-296.97 507.04,-297.26 501.74,-297.51 496.42,-297.7 491.09,-297.85 485.76,-297.95 480.41,-298 475.07,-298 469.73,-297.95 464.39,-297.85 459.06,-297.7 453.74,-297.51 448.45,-297.26 443.17,-296.97 437.92,-296.64 432.71,-296.25 427.53,-295.82 422.4,-295.35 417.33,-294.84 412.33,-294.29 407.4,-293.69 402.56,-293.06 397.81,-292.39 393.18,-291.69 388.68,-290.96 384.32,-290.2 380.11,-289.41 376.07,-288.59 372.23,-287.75 368.59,-286.89 365.17,-286.01 362,-285.11 359.08,-284.2 356.44,-283.28 354.1,-282.35 352.06,-281.41 350.35,-280.47 348.99,-279.53 347.99,-278.59 347.36,-277.65 347.11,-276.72 347.26,-275.8 347.81,-274.89 348.78,-273.99 350.18,-273.11 351.99,-272.25 354.24,-271.41 356.91,-270.59 360.01,-269.8 363.53,-269.04 367.46,-268.31 371.81,-267.61 376.55,-266.94 381.68,-266.31 387.18,-265.71 393.02,-265.16 399.2,-264.65 405.69,-264.18 412.47,-263.75 419.51,-263.36 426.78,-263.03 434.26,-262.74 441.92,-262.49 449.73,-262.3 457.65,-262.15 465.65,-262.05 473.71,-262 481.78,-262 489.83,-262.05"/>
<text text-anchor="middle" x="477.74" y="-276.3" font-family="Times,serif" font-size="14.00">relaxed_constexpr_tests</text>
</a>
</g>
</g>
<!-- relaxed_constexpr_tests&#45;&gt;Catch2 -->
<g id="edge14" class="edge">
<title>relaxed_constexpr_tests&#45;&gt;Catch2</title>
<path fill="none" stroke="black" stroke-dasharray="5,2" d="M557.57,-264.75C607.2,-255.89 661.63,-246.14 661.74,-246 683.13,-220.43 674.5,-201.8 661.74,-171 656.37,-158.04 646.39,-146.52 636.33,-137.35"/>
<polygon fill="black" stroke="black" points="638.56,-134.65 628.69,-130.81 634.01,-139.97 638.56,-134.65"/>
</g>
<!-- relaxed_constexpr_tests&#45;&gt;Catch2WithMain -->
<g id="edge15" class="edge">
<title>relaxed_constexpr_tests&#45;&gt;Catch2WithMain</title>
<path fill="none" stroke="black" stroke-dasharray="5,2" d="M494.49,-261.82C505.6,-250.44 520.34,-235.33 532.69,-222.66"/>
<polygon fill="black" stroke="black" points="535.53,-224.76 540.01,-215.15 530.52,-219.87 535.53,-224.76"/>
</g>
<!-- relaxed_constexpr_tests&#45;&gt;sample_library -->
<g id="edge16" class="edge">
<title>relaxed_constexpr_tests&#45;&gt;sample_library</title>
<path fill="none" stroke="black" stroke-dasharray="5,2" d="M555.4,-264.53C575.66,-260.92 597.5,-257.18 617.74,-254 643.88,-249.9 651.15,-252.74 676.74,-246 702.28,-239.27 729.69,-228.59 751.87,-219"/>
<polygon fill="black" stroke="black" points="753.28,-222.2 761.03,-214.98 750.47,-215.8 753.28,-222.2"/>
</g>
<!-- tests -->
<g id="node11" class="node">
<title>tests</title>
<g id="a_node11"><a xlink:title="type=EXECUTABLE&#10;add_executable @ test/CMakeLists.txt:32&#10;len(depends)=3&#10;compile_groups:&#10;includes:&#10;/workspaces/cmake_graph_tests/tryouts/cmake_template/include&#10;/workspaces/cmake_graph_tests/tryouts/cmake_template/build/include&#10;/workspaces/cmake_graph_tests/tryouts/cmake_template/build/_deps/catch2&#45;src/src/catch2/..&#10;/workspaces/cmake_graph_tests/tryouts/cmake_template/build/_deps/catch2&#45;build/generated&#45;includes&#10;defines:&#10;SAMPLE_LIBRARY_STATIC_DEFINE&#10;sources:&#10;test/tests.cpp">
<polygon fill="none" stroke="black" points="666.07,-262.05 668.28,-262.15 670.46,-262.3 672.61,-262.49 674.72,-262.74 676.78,-263.03 678.78,-263.36 680.72,-263.75 682.59,-264.18 684.37,-264.65 686.08,-265.16 687.69,-265.71 689.2,-266.31 690.61,-266.94 691.92,-267.61 693.12,-268.31 694.2,-269.04 695.17,-269.8 696.03,-270.59 696.76,-271.41 697.38,-272.25 697.88,-273.11 698.26,-273.99 698.53,-274.89 698.68,-275.8 698.72,-276.72 698.66,-277.65 698.48,-278.59 698.21,-279.53 697.83,-280.47 697.36,-281.41 696.8,-282.35 696.15,-283.28 695.43,-284.2 694.62,-285.11 693.75,-286.01 692.81,-286.89 691.81,-287.75 690.75,-288.59 689.63,-289.41 688.48,-290.2 687.27,-290.96 686.03,-291.69 684.76,-292.39 683.45,-293.06 682.12,-293.69 680.76,-294.29 679.38,-294.84 677.98,-295.35 676.57,-295.82 675.15,-296.25 673.71,-296.64 672.26,-296.97 670.81,-297.26 669.35,-297.51 667.89,-297.7 666.42,-297.85 664.95,-297.95 663.48,-298 662,-298 660.53,-297.95 659.06,-297.85 657.6,-297.7 656.13,-297.51 654.67,-297.26 653.22,-296.97 651.77,-296.64 650.34,-296.25 648.91,-295.82 647.5,-295.35 646.1,-294.84 644.72,-294.29 643.36,-293.69 642.03,-293.06 640.72,-292.39 639.45,-291.69 638.21,-290.96 637.01,-290.2 635.85,-289.41 634.74,-288.59 633.68,-287.75 632.67,-286.89 631.73,-286.01 630.86,-285.11 630.06,-284.2 629.33,-283.28 628.68,-282.35 628.12,-281.41 627.65,-280.47 627.28,-279.53 627,-278.59 626.83,-277.65 626.76,-276.72 626.8,-275.8 626.95,-274.89 627.22,-273.99 627.6,-273.11 628.1,-272.25 628.72,-271.41 629.46,-270.59 630.31,-269.8 631.28,-269.04 632.36,-268.31 633.56,-267.61 634.87,-266.94 636.28,-266.31 637.79,-265.71 639.4,-265.16 641.11,-264.65 642.89,-264.18 644.76,-263.75 646.7,-263.36 648.7,-263.03 650.77,-262.74 652.87,-262.49 655.02,-262.3 657.21,-262.15 659.41,-262.05 661.63,-262 663.85,-262 666.07,-262.05"/>
<text text-anchor="middle" x="662.74" y="-276.3" font-family="Times,serif" font-size="14.00">tests</text>
</a>
</g>
</g>
<!-- tests&#45;&gt;Catch2 -->
<g id="edge18" class="edge">
<title>tests&#45;&gt;Catch2</title>
<path fill="none" stroke="black" stroke-dasharray="5,2" d="M671.36,-262.29C673.56,-257.2 675.62,-251.49 676.74,-246 683.38,-213.34 691.28,-200.99 676.74,-171 669.44,-155.94 655.9,-143.7 642.59,-134.56"/>
<polygon fill="black" stroke="black" points="644.24,-131.46 633.94,-129 640.45,-137.35 644.24,-131.46"/>
</g>
<!-- tests&#45;&gt;Catch2WithMain -->
<g id="edge19" class="edge">
<title>tests&#45;&gt;Catch2WithMain</title>
<path fill="none" stroke="black" stroke-dasharray="5,2" d="M642.8,-263.76C627.24,-251.87 605.34,-235.14 587.53,-221.53"/>
<polygon fill="black" stroke="black" points="589.23,-218.42 579.16,-215.13 584.98,-223.98 589.23,-218.42"/>
</g>
<!-- tests&#45;&gt;sample_library -->
<g id="edge20" class="edge">
<title>tests&#45;&gt;sample_library</title>
<path fill="none" stroke="black" stroke-dasharray="5,2" d="M686.08,-264.89C706.43,-252.59 736.29,-234.54 759.86,-220.29"/>
<polygon fill="black" stroke="black" points="761.81,-223.2 768.56,-215.04 758.19,-217.21 761.81,-223.2"/>
</g>
<!-- intro -->
<g id="node12" class="node">
<title>intro</title>
<g id="a_node12"><a xlink:title="type=EXECUTABLE&#10;add_executable @ src/ftxui_sample/CMakeLists.txt:1&#10;len(depends)=6&#10;installs:&#10;/usr/local/bin&#10;compile_groups:&#10;includes:&#10;/workspaces/cmake_graph_tests/tryouts/cmake_template/build/configured_files/include&#10;/workspaces/cmake_graph_tests/tryouts/cmake_template/build/_deps/cli11&#45;src/include&#10;/workspaces/cmake_graph_tests/tryouts/cmake_template/build/_deps/fmt&#45;src/include&#10;/workspaces/cmake_graph_tests/tryouts/cmake_template/build/_deps/spdlog&#45;src/include&#10;/workspaces/cmake_graph_tests/tryouts/cmake_template/build/_deps/tools&#45;src/include&#10;/workspaces/cmake_graph_tests/tryouts/cmake_template/build/_deps/ftxui&#45;src/include&#10;defines:&#10;SPDLOG_COMPILED_LIB&#10;SPDLOG_FMT_EXTERNAL&#10;sources:&#10;src/ftxui_sample/main.cpp">
<polygon fill="none" stroke="black" points="162.99,-262.05 165.14,-262.15 167.27,-262.3 169.37,-262.49 171.42,-262.74 173.43,-263.03 175.39,-263.36 177.28,-263.75 179.1,-264.18 180.84,-264.65 182.5,-265.16 184.08,-265.71 185.55,-266.31 186.93,-266.94 188.2,-267.61 189.37,-268.31 190.43,-269.04 191.38,-269.8 192.21,-270.59 192.93,-271.41 193.53,-272.25 194.02,-273.11 194.39,-273.99 194.65,-274.89 194.8,-275.8 194.84,-276.72 194.77,-277.65 194.61,-278.59 194.34,-279.53 193.97,-280.47 193.51,-281.41 192.96,-282.35 192.33,-283.28 191.62,-284.2 190.84,-285.11 189.99,-286.01 189.07,-286.89 188.09,-287.75 187.06,-288.59 185.97,-289.41 184.84,-290.2 183.67,-290.96 182.46,-291.69 181.22,-292.39 179.94,-293.06 178.64,-293.69 177.32,-294.29 175.97,-294.84 174.61,-295.35 173.23,-295.82 171.84,-296.25 170.44,-296.64 169.03,-296.97 167.61,-297.26 166.19,-297.51 164.76,-297.7 163.33,-297.85 161.89,-297.95 160.46,-298 159.02,-298 157.59,-297.95 156.15,-297.85 154.72,-297.7 153.29,-297.51 151.87,-297.26 150.45,-296.97 149.04,-296.64 147.64,-296.25 146.25,-295.82 144.87,-295.35 143.51,-294.84 142.16,-294.29 140.84,-293.69 139.54,-293.06 138.27,-292.39 137.02,-291.69 135.81,-290.96 134.64,-290.2 133.51,-289.41 132.42,-288.59 131.39,-287.75 130.41,-286.89 129.49,-286.01 128.64,-285.11 127.86,-284.2 127.15,-283.28 126.52,-282.35 125.97,-281.41 125.51,-280.47 125.15,-279.53 124.88,-278.59 124.71,-277.65 124.64,-276.72 124.68,-275.8 124.83,-274.89 125.09,-273.99 125.46,-273.11 125.95,-272.25 126.56,-271.41 127.27,-270.59 128.11,-269.8 129.05,-269.04 130.11,-268.31 131.28,-267.61 132.55,-266.94 133.93,-266.31 135.41,-265.71 136.98,-265.16 138.64,-264.65 140.38,-264.18 142.2,-263.75 144.09,-263.36 146.05,-263.03 148.06,-262.74 150.12,-262.49 152.21,-262.3 154.34,-262.15 156.49,-262.05 158.66,-262 160.83,-262 162.99,-262.05"/>
<text text-anchor="middle" x="159.74" y="-276.3" font-family="Times,serif" font-size="14.00">intro</text>
</a>
</g>
</g>
<!-- intro&#45;&gt;fmt -->
<g id="edge8" class="edge">
<title>intro&#45;&gt;fmt</title>
<path fill="none" stroke="black" stroke-dasharray="5,2" d="M124.94,-279.41C98.31,-277.65 63.11,-270.39 44.74,-246 24.68,-219.38 34.2,-202.62 44.74,-171 46.15,-166.78 48.15,-166.61 50.74,-163 56,-155.68 61.6,-147.64 66.66,-140.27"/>
<polygon fill="black" stroke="black" points="69.55,-142.23 72.3,-132 63.77,-138.28 69.55,-142.23"/>
</g>
<!-- intro&#45;&gt;spdlog -->
<g id="edge9" class="edge">
<title>intro&#45;&gt;spdlog</title>
<path fill="none" stroke="black" stroke-dasharray="5,2" d="M148,-262.61C139.99,-251.42 129.21,-236.36 120.07,-223.6"/>
<polygon fill="black" stroke="black" points="122.73,-221.3 114.06,-215.21 117.04,-225.37 122.73,-221.3"/>
</g>
<!-- intro&#45;&gt;CLI11 -->
<g id="edge10" class="edge">
<title>intro&#45;&gt;CLI11</title>
<path fill="none" stroke="black" stroke-dasharray="5,2" d="M171.48,-262.61C180.11,-250.55 191.96,-234.01 201.5,-220.68"/>
<polygon fill="black" stroke="black" points="204.41,-222.63 207.38,-212.47 198.71,-218.56 204.41,-222.63"/>
</g>
<!-- intro&#45;&gt;component -->
<g id="edge13" class="edge">
<title>intro&#45;&gt;component</title>
<path fill="none" stroke="black" stroke-dasharray="5,2" d="M193.61,-272.02C217.43,-266.49 249.74,-257.75 276.74,-246 292.55,-239.12 309.01,-229.56 322.79,-220.78"/>
<polygon fill="black" stroke="black" points="324.95,-223.55 331.42,-215.16 321.13,-217.68 324.95,-223.55"/>
</g>
<!-- intro&#45;&gt;dom -->
<g id="edge12" class="edge">
<title>intro&#45;&gt;dom</title>
<path fill="none" stroke="black" stroke-dasharray="5,2" d="M194.2,-273.46C229.43,-267.94 285.79,-259.51 334.74,-254 345.49,-252.79 424.42,-253.95 431.74,-246 454.32,-221.48 442.64,-202.5 431.74,-171 427.55,-158.89 419.54,-147.41 411.49,-138.03"/>
<polygon fill="black" stroke="black" points="413.83,-135.39 404.51,-130.36 408.66,-140.11 413.83,-135.39"/>
</g>
<!-- intro&#45;&gt;screen -->
<g id="edge11" class="edge">
<title>intro&#45;&gt;screen</title>
<path fill="none" stroke="black" stroke-dasharray="5,2" d="M124.77,-275.02C90.08,-270.28 40.45,-261.03 28.74,-246 -14.59,-190.39 -7.47,-137.48 42.74,-88 75.43,-55.79 204.8,-46.62 280.26,-44.02"/>
<polygon fill="black" stroke="black" points="280.65,-47.51 290.53,-43.69 280.43,-40.51 280.65,-47.51"/>
</g>
</g>
</svg>
